<svg width="314" height="320" viewBox="0 0 314 320" fill="none" xmlns="http://www.w3.org/2000/svg">
<circle cx="156" cy="160" r="137" fill="#D9D9D9"/>
<circle cx="156" cy="160" r="141" fill="url(#paint0_radial_1_63)" stroke="black" stroke-width="8"/>
<path d="M19 160C19 84.337 80.337 23 156 23C231.663 23 293 84.337 293 160L19 160Z" fill="url(#paint1_radial_1_63)"/>
<circle cx="156" cy="160" r="50" fill="url(#paint2_linear_1_63)" stroke="black" stroke-width="8"/>
<circle cx="156" cy="160" r="25" stroke="#B5B5B5" stroke-width="8"/>
<path d="M296.77 156C296.921 157.324 297 158.657 297 160C297 161.343 296.921 162.676 296.77 164H206V156H296.77Z" fill="black"/>
<path d="M106 164H17.2378C17.0818 162.676 17 161.343 17 160C17 158.657 17.0818 157.324 17.2378 156H106V164Z" fill="black"/>
<circle cx="156" cy="160" r="133" stroke="url(#paint3_linear_1_63)" stroke-opacity="0.25" stroke-width="8"/>
<circle cx="156" cy="160" r="133" transform="rotate(-180 156 160)" stroke="url(#paint4_linear_1_63)" stroke-opacity="0.25" stroke-width="8"/>
<defs>
<radialGradient id="paint0_radial_1_63" cx="0" cy="0" r="1" gradientUnits="userSpaceOnUse" gradientTransform="translate(156 177) rotate(90) scale(212)">
<stop offset="0.15" stop-color="#F8F8F8"/>
<stop offset="0.85" stop-color="#B3B3B3"/>
</radialGradient>
<radialGradient id="paint1_radial_1_63" cx="0" cy="0" r="1" gradientUnits="userSpaceOnUse" gradientTransform="translate(156 61) rotate(90) scale(243 486)">
<stop offset="0.15" stop-color="#CB0000"/>
<stop offset="0.7" stop-color="#B20404"/>
</radialGradient>
<linearGradient id="paint2_linear_1_63" x1="156" y1="137" x2="156" y2="236" gradientUnits="userSpaceOnUse">
<stop stop-color="white"/>
<stop offset="1" stop-color="#C5C5C5"/>
</linearGradient>
<linearGradient id="paint3_linear_1_63" x1="156" y1="23" x2="156" y2="99" gradientUnits="userSpaceOnUse">
<stop stop-color="white"/>
<stop offset="1" stop-color="white" stop-opacity="0"/>
</linearGradient>
<linearGradient id="paint4_linear_1_63" x1="156" y1="23" x2="156" y2="99" gradientUnits="userSpaceOnUse">
<stop stop-color="white"/>
<stop offset="1" stop-color="white" stop-opacity="0"/>
</linearGradient>
</defs>
</svg>
